<?xml version="1.0" encoding="utf-8"?>
<!-- Generator: Adobe Illustrator 16.0.3, SVG Export Plug-In . SVG Version: 6.00 Build 0)  -->
<!DOCTYPE svg PUBLIC "-//W3C//DTD SVG 1.1//EN" "http://www.w3.org/Graphics/SVG/1.1/DTD/svg11.dtd">
<svg version="1.1" id="Layer_1" xmlns="http://www.w3.org/2000/svg" xmlns:xlink="http://www.w3.org/1999/xlink" x="0px" y="0px"
	 width="612px" height="792px" viewBox="0 0 612 792" enable-background="new 0 0 612 792" xml:space="preserve">
<g id="person">
	<path fill="#FFFFFF" d="M340.645,301.147c0.822,0.486,1.765,0.731,2.72,0.708h42.635c0.981,0.033,1.937-0.323,2.656-0.992
		c0.736-0.629,1.151-1.554,1.134-2.521c0.012-0.949-0.404-1.852-1.134-2.458c-0.719-0.67-1.674-1.029-2.656-0.999h-37.854
		l39.447-59.967c0.502-0.697,0.781-1.529,0.801-2.387c0.017-0.973-0.367-1.911-1.063-2.592c-0.672-0.663-1.586-1.021-2.529-0.992
		h-40.7c-0.981-0.029-1.935,0.327-2.656,0.992c-0.72,0.586-1.136,1.466-1.134,2.394c-0.021,0.93,0.399,1.815,1.134,2.387
		c0.719,0.67,1.674,1.029,2.656,0.999H378.3l-38.052,57.97c-0.868,1.157-1.375,2.544-1.459,3.988
		C338.681,299.096,339.404,300.449,340.645,301.147z"/>
	<path fill="#FFFFFF" d="M503.207,267.48v30.813c-0.045,1.077,0.337,2.128,1.063,2.925c0.643,0.766,1.593,1.205,2.593,1.197
		c1.02,0.017,1.993-0.422,2.656-1.197c0.711-0.806,1.091-1.851,1.063-2.925V267.48l20.053-33.604
		c0.392-0.639,0.598-1.375,0.595-2.125c0.025-0.954-0.361-1.873-1.063-2.521c-0.586-0.519-1.343-0.801-2.125-0.793
		c-1.357-0.011-2.609,0.73-3.251,1.927l-17.928,30.012l-17.864-30.012c-0.646-1.196-1.899-1.938-3.259-1.927
		c-0.72-0.012-1.422,0.223-1.99,0.666c-0.826,0.625-1.296,1.614-1.261,2.649c0.012,0.758,0.243,1.496,0.666,2.125L503.207,267.48z"
		/>
	<path fill="#FFFFFF" d="M137.863,438.748h-19.571c-1.724,0-2.585,1.086-2.585,3.258v40.375c0,2.253,0.949,3.387,2.833,3.387
		s2.833-1.134,2.833-3.387v-17.602h15.009c1.771,0,2.656-0.836,2.656-2.521c0-1.687-0.885-2.522-2.656-2.522h-14.988v-15.938h16.469
		c1.813,0,2.72-0.843,2.72-2.528S139.676,438.743,137.863,438.748z"/>
	<path fill="#FFFFFF" d="M281.832,438.685h-23.509c-1.813,0-2.72,0.84-2.72,2.521c0,1.686,0.907,2.521,2.72,2.521h8.896v38.689
		c0,2.252,0.956,3.386,2.833,3.386c1.877,0,2.833-1.134,2.833-3.386v-38.689h8.897c1.813,0,2.72-0.836,2.72-2.521
		C284.502,439.52,283.645,438.685,281.832,438.685z"/>
	<path fill="#FFFFFF" d="M416.968,438.685h-11.554c-0.741-0.007-1.456,0.278-1.99,0.793c-0.582,0.631-0.893,1.466-0.864,2.323
		v40.616c0,2.252,0.949,3.386,2.834,3.386c1.884,0,2.833-1.134,2.833-3.386v-14.514h9.499c3.539,0.033,6.949-1.328,9.491-3.79
		c5.908-5.521,6.408-14.718,1.134-20.846C425.545,440.207,421.751,438.68,416.968,438.685z M423.541,460.133
		c-1.897,1.825-4.452,2.807-7.084,2.72h-8.188v-19.125h8.436c1.806-0.032,3.59,0.402,5.178,1.261
		c2.966,1.686,4.449,4.387,4.449,8.104C426.412,455.723,425.402,458.271,423.541,460.133L423.541,460.133z"/>
	<path fill="#FFFFFF" d="M595.808,391.842c-4.441-3.018-8.713-3.173-96.447-3.96l-91.849-0.793l-0.468-4.116
		c-0.475-3.485,3.484-7.6,28.333-29.75c10.703-9.647,18.204-16.093,23.305-20.053c3.926,2.611,8.53,4.015,13.245,4.038H476
		c3.124,4.37,7.147,10.44,12.304,18.53l17.418,27.398h22.667c12.354,0,22.489-0.312,22.489-0.63
		c0-0.439-13.721-22.086-28.567-45.298h29.623c6.866,0,13.262-2.944,19.188-8.833s8.871-12.285,8.833-19.189V229.23
		c0-6.951-2.944-13.347-8.833-19.189c-5.889-5.841-12.302-8.786-19.238-8.833h-79.957c-6.946,0-13.343,2.944-19.188,8.833
		c-5.846,5.889-8.79,12.285-8.833,19.189v64.572c-2.252,1.955-4.708,4.11-7.366,6.467V229.23c0-6.951-2.944-13.347-8.833-19.189
		c-5.889-5.841-12.287-8.786-19.196-8.833h-79.949c-6.951,0-13.35,2.944-19.196,8.833c-5.846,5.889-8.788,12.285-8.826,19.189
		v45.255c-2.054,0.814-4.533,1.849-7.374,3.053V229.23c0-6.951-2.944-13.347-8.833-19.189c-5.889-5.841-12.285-8.786-19.188-8.833
		h-79.957c-6.951,0-13.347,2.944-19.188,8.833c-5.841,5.889-8.786,12.285-8.833,19.189v79.957c0,0.291,0,0.588,0,0.878
		c-1.839-4.217-4.335-8.117-7.395-11.553V229.23c0-6.951-2.944-13.347-8.833-19.189c-5.889-5.841-12.278-8.786-19.167-8.833H41.792
		c-6.956,0-13.354,2.944-19.196,8.833c-5.841,5.889-8.776,12.285-8.805,19.189v79.957c0,6.909,2.968,13.305,8.904,19.189
		c5.936,5.884,12.302,8.828,19.097,8.833h32.151c4.399,19.316,21.115,34.829,42.16,34.829c19.472,0,37.69-13.146,42.918-30.883
		c1.893-6.513,2.35-13.36,1.338-20.067c1.549,2.676,3.456,5.128,5.667,7.289c4.798,4.76,9.881,7.593,15.25,8.5
		c-7.983,9.208-15.817,21.073-22.107,33.887l-8.23,16.78l-15.81,6.333c-8.706,3.485-18.686,7.133-22.171,8.082
		c-15.357,4.115-29.75,0.318-38.795-10.625c-4.434-5.546-4.59-6.177-3.804-16.292c1.112-10.455,0.956-10.625-4.59-16.632
		c-4.909-5.383-6.495-6.169-12.665-6.169c-4.916,0-8.712,1.112-11.723,3.322c-5.546,4.123-29.934,42.444-31.358,49.257
		c-1.587,7.126,3.166,16.292,10.292,19.798c3.393,1.75,11.723,2.43,89.526,2.692c-4.335,1.598-8.245,4.172-11.425,7.522
		c-5.889,5.846-8.833,12.242-8.833,19.188v79.957c0,6.908,2.968,13.305,8.904,19.188c5.936,5.884,12.311,8.828,19.125,8.833h79.949
		c6.866,0,13.263-2.944,19.189-8.833s8.871-12.285,8.833-19.188V454.02c0-6.946-2.944-13.343-8.833-19.188
		c-3.087-3.243-6.854-5.764-11.029-7.381h47.062c-4.16,1.62-7.913,4.135-10.993,7.366c-5.889,5.847-8.833,12.242-8.833,19.189
		v79.971c0,6.908,2.966,13.305,8.897,19.188c5.931,5.884,12.306,8.828,19.125,8.833h79.956c6.857,0,13.253-2.944,19.189-8.833
		c5.936-5.889,8.88-12.285,8.833-19.188V454.02c0-6.946-2.944-13.343-8.833-19.188c-3.081-3.231-6.834-5.747-10.993-7.367h47.068
		c-4.18,1.616-7.951,4.137-11.043,7.381c-5.884,5.847-8.826,12.242-8.826,19.189v79.942c0,6.908,2.966,13.305,8.896,19.188
		c5.932,5.884,12.307,8.828,19.125,8.833h79.95c6.861,0,13.26-2.944,19.195-8.833c5.937-5.889,8.881-12.285,8.833-19.188V454.02
		c0-6.946-2.944-13.343-8.833-19.188c-3.177-3.347-7.081-5.918-11.411-7.516c84.101-0.248,98.813-0.843,101.66-2.217
		c5.391-2.834,10.93-10.93,10.93-16.292C604.676,402.765,600.561,395.008,595.808,391.842z M41.551,328.241
		c-5.751,0-10.975-2.361-15.668-7.083c-4.694-4.722-7.041-9.886-7.041-15.491v-76.967c0.037-2.779,0.67-5.519,1.855-8.033
		c1.774-3.81,4.384-7.17,7.636-9.832c4.075-3.306,8.259-4.958,12.551-4.958h78.292c6.2,0,11.713,2.989,16.54,8.968
		c3.674,4.562,5.511,9.187,5.511,13.876v62.447c-6.567-4.265-14.139-6.729-21.958-7.147c-5.667-0.319-12.516,0.319-17.262,1.905
		c-4.746,1.587-9.853,4.958-14.464,9.208H69.041v-62.581c0.029-1.075-0.351-2.12-1.063-2.926c-0.663-0.773-1.637-1.209-2.656-1.19
		c-0.996-0.008-1.944,0.428-2.585,1.19c-0.724,0.798-1.106,1.849-1.063,2.926v65.698c-0.012,0.938,0.344,1.843,0.991,2.521
		c0.694,0.724,1.654,1.131,2.656,1.126h16.016c-2.58,3.192-4.627,6.78-6.063,10.625c-1.733,5.066-2.553,10.4-2.422,15.753
		L41.551,328.241z M211.508,439.612c3.674,4.519,5.511,9.145,5.511,13.876v76.968c0,5.624-2.347,10.78-7.041,15.47
		s-9.875,7.051-15.541,7.083h-77.095c-5.751,0-10.974-2.36-15.668-7.083s-7.041-9.879-7.041-15.47v-76.968
		c0.038-2.779,0.67-5.519,1.856-8.032c1.748-3.813,4.362-7.166,7.636-9.789c4.075-3.306,8.238-4.959,12.488-4.959h78.356
		C201.169,430.666,206.682,433.634,211.508,439.612z M498.249,439.612c3.679,4.562,5.516,9.187,5.511,13.876v76.968
		c0,5.624-2.347,10.78-7.041,15.47s-9.872,7.051-15.534,7.083h-77.102c-5.752,0-10.998-2.36-15.739-7.083
		c-4.646-4.689-6.97-9.846-6.97-15.47v-76.968c0.031-2.777,0.657-5.517,1.834-8.032c1.785-3.799,4.405-7.146,7.664-9.789
		c4.023-3.306,8.184-4.959,12.481-4.959h78.362C487.864,430.666,493.375,433.634,498.249,439.612L498.249,439.612z M448.956,228.699
		c0.037-2.779,0.67-5.519,1.855-8.033c1.774-3.81,4.384-7.17,7.636-9.832c4.075-3.306,8.26-4.958,12.552-4.958h78.292
		c6.2,0,11.714,2.989,16.54,8.968c3.669,4.562,5.506,9.187,5.511,13.876v76.946c0,5.625-2.326,10.781-6.978,15.47
		c-4.722,4.722-9.916,7.083-15.583,7.083h-32.265c-15.073-23.517-29.658-46.042-30.777-47.402
		c-2.691-3.329-12.197-5.858-18.055-4.753c-2.728,0.539-8.005,4.25-18.729,13.366V228.699z M305.582,228.699
		c0.031-2.778,0.656-5.517,1.835-8.033c1.771-3.811,4.382-7.172,7.636-9.832c4.075-3.306,8.259-4.958,12.552-4.958h78.32
		c6.2,0,11.711,2.989,16.532,8.968c3.679,4.515,5.516,9.14,5.511,13.876v76.946c0.001,0.793-0.049,1.586-0.148,2.373
		c-8.798,7.884-17,15.095-22.851,20.202h-76.678c-5.751,0-10.975-2.361-15.668-7.083c-3.612-3.612-5.834-7.503-6.666-11.673
		c13.755-5.716,19.989-11.036,19.989-16.597c0-9.817-9.98-20.591-19.004-20.591c-0.465,0.055-0.921,0.165-1.36,0.326V228.699z
		 M300.624,311.574c0.604,6.007,3.53,11.614,8.777,16.823c1.999,2.011,4.231,3.776,6.65,5.256
		c-19.188-1.183-28.963-1.983-33.95-3.23c0.708-0.63,1.473-1.303,2.196-2.026c4.292-4.325,7.02-8.901,8.181-13.728
		c2.125-0.821,4.547-1.742,7.303-2.784L300.624,311.574z M162.208,305.666v-76.967c0.04-2.78,0.675-5.519,1.863-8.033
		c1.771-3.811,4.382-7.172,7.636-9.832c4.075-3.306,8.259-4.958,12.552-4.958h78.292c6.139,0,11.65,2.989,16.533,8.968
		c3.674,4.515,5.513,9.14,5.518,13.876v52.53c-9.527,4.172-21.292,9.484-33.709,15.25l-1.006,0.475l-24.253-65.011
		c-0.702-2.237-2.846-3.702-5.185-3.542c-2.36-0.143-4.518,1.333-5.241,3.584l-24.239,65.096c-0.208,0.55-0.321,1.133-0.333,1.721
		c-0.027,1.956,1.536,3.563,3.492,3.591c0.017,0,0.033,0,0.05,0c1.813,0,3.053-0.935,3.719-2.791l5.114-13.614h34.928l5.114,13.614
		c0.064,0.17,0.135,0.326,0.206,0.489c-27.483,13.012-47.529,23.283-51.588,26.471c-0.638,0.531-1.282,1.083-1.927,1.657h-4.816
		c-5.757,0-10.982-2.361-15.676-7.083C164.555,316.435,162.208,311.271,162.208,305.666z M235.394,279.238h-29.885l14.938-40.177
		L235.394,279.238z M354.875,439.612c3.674,4.562,5.514,9.187,5.518,13.876v76.968c0,5.624-2.347,10.78-7.04,15.47
		c-4.694,4.689-9.875,7.051-15.541,7.083h-77.095c-5.756,0-10.981-2.36-15.675-7.083c-4.694-4.723-7.041-9.879-7.041-15.47v-76.968
		c0.041-2.779,0.676-5.519,1.863-8.032c1.748-3.813,4.363-7.166,7.636-9.789c4.076-3.306,8.238-4.959,12.488-4.959h78.356
		C344.5,430.666,350.011,433.634,354.875,439.612z"/>
</g>
</svg>
