<svg xmlns="http://www.w3.org/2000/svg" viewBox="0 0 864 864"><g id="person"><path d="M480.91,298.09a7.22,7.22,0,0,0,3.84,1h60.19a5.25,5.25,0,0,0,3.75-1.4,4.57,4.57,0,0,0,1.6-3.56,4.44,4.44,0,0,0-1.6-3.47,5.26,5.26,0,0,0-3.75-1.41H491.5l55.69-84.66a6,6,0,0,0,1.13-3.37,5,5,0,0,0-1.5-3.66,4.87,4.87,0,0,0-3.57-1.4H485.79a5.3,5.3,0,0,0-3.75,1.4,4.35,4.35,0,0,0-1.6,3.38,4.15,4.15,0,0,0,1.6,3.37,5.26,5.26,0,0,0,3.75,1.41h48.28l-53.72,81.84a10.39,10.39,0,0,0-2.06,5.63A5.17,5.17,0,0,0,480.91,298.09Z"/><path d="M710.41,250.56v43.5a5.78,5.78,0,0,0,1.5,4.13,4.73,4.73,0,0,0,3.66,1.69,4.83,4.83,0,0,0,3.75-1.69,6,6,0,0,0,1.5-4.13v-43.5l28.31-47.44a5.71,5.71,0,0,0,.84-3,4.68,4.68,0,0,0-1.5-3.56,4.46,4.46,0,0,0-3-1.12,5.16,5.16,0,0,0-4.59,2.72l-25.31,42.37-25.22-42.37a5.18,5.18,0,0,0-4.6-2.72,4.45,4.45,0,0,0-2.81.94,4.5,4.5,0,0,0-1.78,3.74,5.53,5.53,0,0,0,.94,3Z"/><path d="M194.63,492.35H167q-3.65,0-3.65,4.6v57c0,3.18,1.34,4.78,4,4.78s4-1.6,4-4.78V529.1h21.19c2.5,0,3.75-1.18,3.75-3.56s-1.25-3.56-3.75-3.56H171.38v-22.5h23.25q3.84,0,3.84-3.57T194.63,492.35Z"/><path d="M397.88,492.26H364.69q-3.84,0-3.84,3.56c0,2.38,1.28,3.56,3.84,3.56h12.56V554c0,3.18,1.35,4.78,4,4.78s4-1.6,4-4.78V499.38h12.56c2.56,0,3.84-1.18,3.84-3.56S400.44,492.26,397.88,492.26Z"/><path d="M588.66,492.26H572.35a4,4,0,0,0-2.81,1.12,4.61,4.61,0,0,0-1.22,3.28V554c0,3.18,1.34,4.78,4,4.78s4-1.6,4-4.78V533.51h13.41a19,19,0,0,0,13.4-5.35,21.28,21.28,0,0,0,1.6-29.43Q598.79,492.25,588.66,492.26Zm9.28,30.28a13.77,13.77,0,0,1-10,3.84H576.38v-27h11.91a14.82,14.82,0,0,1,7.31,1.78q6.28,3.57,6.28,11.44A13.47,13.47,0,0,1,597.94,522.54Z"/><path d="M841.14,426.13c-6.27-4.26-12.3-4.48-136.16-5.59l-129.67-1.12-.66-5.81c-.67-4.92,4.92-10.73,40-42,15.11-13.62,25.7-22.72,32.9-28.31A34.05,34.05,0,0,0,666.25,349H672c4.41,6.17,10.09,14.74,17.37,26.16l24.59,38.68h32c17.44,0,31.75-.44,31.75-.89,0-.62-19.37-31.18-40.33-63.95h41.82q14.54,0,27.09-12.47t12.47-27.09V196.56q0-14.72-12.47-27.09T779.13,157H666.25q-14.71,0-27.09,12.47t-12.47,27.09v91.16q-4.77,4.14-10.4,9.13V196.56q0-14.72-12.47-27.09T576.72,157H463.85q-14.72,0-27.1,12.47t-12.46,27.09v63.89c-2.9,1.15-6.4,2.61-10.41,4.31v-68.2q0-14.72-12.47-27.09T374.32,157H261.44q-14.72,0-27.09,12.47t-12.47,27.09V309.44c0,.41,0,.83,0,1.24a61.47,61.47,0,0,0-10.44-16.31V196.56q0-14.72-12.47-27.09T171.91,157H59q-14.73,0-27.1,12.47T19.47,196.56V309.44q0,14.63,12.57,27.09T59,349h45.39c6.21,27.27,29.81,49.17,59.52,49.17,27.49,0,53.21-18.56,60.59-43.6a66.16,66.16,0,0,0,1.89-28.33,48,48,0,0,0,8,10.29q10.16,10.08,21.53,12c-11.27,13-22.33,29.75-31.21,47.84l-11.62,23.69L190.77,429c-12.29,4.92-26.38,10.07-31.3,11.41-21.68,5.81-42,.45-54.77-15-6.26-7.83-6.48-8.72-5.37-23,1.57-14.76,1.35-15-6.48-23.48-6.93-7.6-9.17-8.71-17.88-8.71-6.94,0-12.3,1.57-16.55,4.69-7.83,5.82-42.26,59.92-44.27,69.54-2.24,10.06,4.47,23,14.53,27.95,4.79,2.47,16.55,3.43,126.39,3.8a42.52,42.52,0,0,0-16.13,10.62q-12.47,12.38-12.47,27.09V626.79q0,14.63,12.57,27.09t27,12.47H278.91q14.54,0,27.09-12.47t12.47-27.09V513.91q0-14.71-12.47-27.09a42.9,42.9,0,0,0-15.57-10.42l66.44,0a43,43,0,0,0-15.52,10.4q-12.47,12.38-12.47,27.09V626.79q0,14.63,12.56,27.09t27,12.47H481.32q14.52,0,27.09-12.47t12.47-27.09V513.91q0-14.71-12.47-27.09a43,43,0,0,0-15.52-10.4l66.45,0a42.92,42.92,0,0,0-15.59,10.42q-12.46,12.38-12.46,27.09V626.79q0,14.63,12.56,27.09t27,12.47H683.72q14.53,0,27.1-12.47t12.47-27.09V513.91q0-14.71-12.47-27.09a42.51,42.51,0,0,0-16.11-10.61c118.73-.35,139.5-1.19,143.52-3.13,7.61-4,15.43-15.43,15.43-23C853.66,441.55,847.85,430.6,841.14,426.13ZM58.66,336.34q-12.18,0-22.12-10T26.6,304.47V195.81a27.44,27.44,0,0,1,2.62-11.34A39.46,39.46,0,0,1,40,170.59q8.63-7,17.72-7H168.25q13.13,0,23.35,12.66,7.78,9.66,7.78,19.59V284a63.1,63.1,0,0,0-31-10.09c-8-.45-17.67.45-24.37,2.69s-13.91,7-20.42,13H97.47V201.25a6,6,0,0,0-1.5-4.13,4.82,4.82,0,0,0-3.75-1.68,4.72,4.72,0,0,0-3.65,1.68,5.8,5.8,0,0,0-1.5,4.13V294a5.06,5.06,0,0,0,1.4,3.56,5.16,5.16,0,0,0,3.75,1.59h22.61a53.87,53.87,0,0,0-8.56,15,63.89,63.89,0,0,0-3.42,22.24ZM298.6,493.57q7.78,9.57,7.78,19.59V621.82q0,11.91-9.94,21.84t-21.94,10H165.66q-12.18,0-22.12-10t-9.94-21.84V513.16a27.47,27.47,0,0,1,2.62-11.34A38,38,0,0,1,147,488q8.63-7,17.63-7H275.25Q288.38,480.91,298.6,493.57Zm404.81,0q7.79,9.66,7.78,19.59V621.82q0,11.91-9.94,21.84t-21.93,10H570.47q-12.18,0-22.22-10-9.84-9.93-9.84-21.84V513.16A27.49,27.49,0,0,1,541,501.82,39.32,39.32,0,0,1,551.82,488q8.52-7,17.62-7H680.07Q693.09,480.91,703.41,493.57ZM633.82,195.81a27.44,27.44,0,0,1,2.62-11.34,39.46,39.46,0,0,1,10.78-13.88q8.63-7,17.72-7H775.47q13.13,0,23.35,12.66,7.77,9.66,7.78,19.59V304.47q0,11.91-9.85,21.84-10,10-22,10H729.2c-21.28-33.2-41.87-65-43.45-66.92-3.8-4.7-17.22-8.27-25.49-6.71-3.85.76-11.3,6-26.44,18.87Zm-202.41,0A27.46,27.46,0,0,1,434,184.47a39.35,39.35,0,0,1,10.78-13.88q8.63-7,17.72-7H573.07q13.13,0,23.34,12.66,7.79,9.56,7.78,19.59V304.47a26.55,26.55,0,0,1-.21,3.35c-12.42,11.13-24,21.31-32.26,28.52H463.47q-12.18,0-22.12-10-7.65-7.65-9.41-16.48c19.42-8.07,28.22-15.58,28.22-23.43,0-13.86-14.09-29.07-26.83-29.07a8.51,8.51,0,0,0-1.92.46Zm-7,117q1.28,12.72,12.39,23.75a50.14,50.14,0,0,0,9.39,7.42c-27.09-1.67-40.89-2.8-47.93-4.56,1-.89,2.08-1.84,3.1-2.86q9.09-9.16,11.55-19.38c3-1.16,6.42-2.46,10.31-3.93ZM229,304.47V195.81a27.46,27.46,0,0,1,2.63-11.34,39.35,39.35,0,0,1,10.78-13.88q8.63-7,17.72-7H370.66q13,0,23.34,12.66,7.78,9.56,7.79,19.59V270c-13.45,5.89-30.06,13.39-47.59,21.53l-1.42.67-34.24-91.78a7.16,7.16,0,0,0-7.32-5,7.31,7.31,0,0,0-7.4,5.06L269.6,292.38a7.28,7.28,0,0,0-.47,2.43,5,5,0,0,0,5,5.07c2.56,0,4.31-1.32,5.25-3.94l7.22-19.22h49.31l7.22,19.22c.09.24.19.46.29.69C304.62,315,276.32,329.5,270.59,334c-.9.75-1.81,1.53-2.72,2.34h-6.8q-12.19,0-22.13-10T229,304.47Zm103.32-37.31H290.13l21.09-56.72ZM501,493.57q7.78,9.66,7.79,19.59V621.82q0,11.91-9.94,21.84t-21.94,10H368.07q-12.19,0-22.13-10T336,621.82V513.16a27.49,27.49,0,0,1,2.63-11.34A38,38,0,0,1,349.41,488q8.63-7,17.63-7H477.66Q490.7,480.91,501,493.57Z"/></g></svg>